<?xml version="1.0" encoding="UTF-8"?>
<level>
  <owner>Fistachka</owner>
  <repo>zima3</repo>
  <version>v1.0.0</version>
  <next number="1" owner="Fistachka" repo="zima2"/>
  <readme>
    <ru>27bf8ca9b50225b2021a7feec2290665cb7e9430814399ef413e5904150e5a4f</ru>
    <en>7520dab4c30742671c7f72a11dbb394914ef19c16b90251f7541035627bb6870</en>
  </readme>
  <license>b1b99f5538d1fd3702219bff50c665196dfa42f6ee755c37fe41a6178d6bc6e5</license>
  <exercise number="1">
    <scale>minor</scale>
    <cadenceVariant>harmonic</cadenceVariant>
    <bpm>140</bpm>
    <lowestNote>5</lowestNote>
    <tonalities>8</tonalities>
    <video name="1t.mp4" size="1826743" type="video/mp4" volume="0.5">7c2700e24bc1233252e20105d2f96e9981b4ff41428178bc19354e9f89f932c6</video>
    <notes>
      <note number="1" values="5" ticks="775" durationTicks="35" ppq="96" velocity="0.71"/>
      <note number="2" values="5" ticks="822" durationTicks="68" ppq="96" velocity="0.778"/>
      <note number="3" values="5" ticks="919" durationTicks="96" ppq="96" velocity="0.733"/>
      <note number="4" values="18" ticks="1014" durationTicks="95" ppq="96" velocity="0.758"/>
      <note number="5" values="38" ticks="1110" durationTicks="95" ppq="96" velocity="0.712"/>
      <note number="6" values="28" ticks="1206" durationTicks="95" ppq="96" velocity="0.8"/>
      <note number="7" values="18" ticks="1302" durationTicks="95" ppq="96" velocity="0.753"/>
    </notes>
  </exercise>
  <exercise number="2">
    <scale>minor</scale>
    <cadenceVariant>harmonic</cadenceVariant>
    <bpm>140</bpm>
    <lowestNote>5</lowestNote>
    <tonalities>8</tonalities>
    <video name="2t.mp4" size="1706703" type="video/mp4" volume="0.5">1b07d6eeffbdddfc063b838594e44ae961cbd6b437c29847611702f8fd617e9f</video>
    <notes>
      <note number="1" values="5" ticks="122" durationTicks="35" ppq="96" velocity="0.709"/>
      <note number="2" values="5" ticks="170" durationTicks="68" ppq="96" velocity="0.772"/>
      <note number="3" values="5" ticks="266" durationTicks="96" ppq="96" velocity="0.722"/>
      <note number="4" values="18" ticks="362" durationTicks="96" ppq="96" velocity="0.784"/>
      <note number="5" values="28" ticks="458" durationTicks="96" ppq="96" velocity="0.722"/>
      <note number="6" values="18" ticks="554" durationTicks="96" ppq="96" velocity="0.787"/>
      <note number="7" values="79" ticks="650" durationTicks="96" ppq="96" velocity="0.727"/>
    </notes>
  </exercise>
  <exercise number="3">
    <scale>minor</scale>
    <cadenceVariant>harmonic</cadenceVariant>
    <bpm>140</bpm>
    <lowestNote>5</lowestNote>
    <tonalities>8</tonalities>
    <video name="3t.mp4" size="1725252" type="video/mp4" volume="0.5">dcab64319f01999a35cfa9df259fc76a18fac092907971a729a7157715f388ca</video>
    <notes>
      <note number="1" values="5" ticks="136" durationTicks="35" ppq="96" velocity="0.709"/>
      <note number="2" values="5" ticks="184" durationTicks="68" ppq="96" velocity="0.772"/>
      <note number="3" values="5" ticks="280" durationTicks="96" ppq="96" velocity="0.719"/>
      <note number="4" values="28" ticks="376" durationTicks="96" ppq="96" velocity="0.764"/>
      <note number="5" values="48" ticks="472" durationTicks="96" ppq="96" velocity="0.714"/>
      <note number="6" values="38" ticks="568" durationTicks="96" ppq="96" velocity="0.795"/>
      <note number="7" values="28" ticks="664" durationTicks="96" ppq="96" velocity="0.732"/>
    </notes>
  </exercise>
  <exercise number="4">
    <scale>minor</scale>
    <cadenceVariant>harmonic</cadenceVariant>
    <bpm>140</bpm>
    <lowestNote>5</lowestNote>
    <tonalities>8</tonalities>
    <video name="4t.mp4" size="1438786" type="video/mp4" volume="0.5">2ac31d8d28eddb7fbecee625337a504beddebea4bdbadc42c39c2e0915623605</video>
    <notes>
      <note number="1" values="6" ticks="90" durationTicks="35" ppq="96" velocity="0.709"/>
      <note number="2" values="5" ticks="138" durationTicks="68" ppq="96" velocity="0.772"/>
      <note number="3" values="5" ticks="234" durationTicks="96" ppq="96" velocity="0.709"/>
      <note number="4" values="79" ticks="330" durationTicks="96" ppq="96" velocity="0.777"/>
      <note number="5" values="28" ticks="426" durationTicks="72" ppq="96" velocity="0.711"/>
      <note number="6" values="28" ticks="522" durationTicks="96" ppq="96" velocity="0.795"/>
      <note number="7" values="38" ticks="618" durationTicks="96" ppq="96" velocity="0.714"/>
    </notes>
  </exercise>
  <exercise number="5">
    <scale>major</scale>
    <bpm>140</bpm>
    <lowestNote>6</lowestNote>
    <tonalities>8</tonalities>
    <video name="5t.mp4" size="1740897" type="video/mp4" volume="0.5">30fdac954b37e256dba0bec299bf310abe04a1ae764895357a789ff4291649d2</video>
    <notes>
      <note number="1" values="18" ticks="106" durationTicks="28" ppq="96" velocity="0.709"/>
      <note number="2" values="18" ticks="154" durationTicks="68" ppq="96" velocity="0.772"/>
      <note number="3" values="18" ticks="250" durationTicks="96" ppq="96" velocity="0.732"/>
      <note number="4" values="38" ticks="346" durationTicks="46" ppq="96" velocity="0.777"/>
      <note number="5" values="48" ticks="392" durationTicks="96" ppq="96" velocity="0.722"/>
      <note number="6" values="58" ticks="489" durationTicks="66" ppq="96" velocity="0.794"/>
      <note number="7" values="58" ticks="581" durationTicks="185" ppq="96" velocity="0.734"/>
    </notes>
  </exercise>
  <exercise number="6">
    <scale>minor</scale>
    <cadenceVariant>harmonic</cadenceVariant>
    <bpm>140</bpm>
    <lowestNote>6</lowestNote>
    <tonalities>8</tonalities>
    <video name="6t.mp4" size="1300523" type="video/mp4" volume="0.5">80363143a153ece51edfa2a51c50380563585e153604fce99ead56ac657019a2</video>
    <notes>
      <note number="1" values="58" ticks="48" durationTicks="28" ppq="96" velocity="0.709"/>
      <note number="2" values="58" ticks="96" durationTicks="68" ppq="96" velocity="0.772"/>
      <note number="3" values="58" ticks="192" durationTicks="96" ppq="96" velocity="0.724"/>
      <note number="4" values="68" ticks="288" durationTicks="46" ppq="96" velocity="0.772"/>
      <note number="5" values="58" ticks="334" durationTicks="96" ppq="96" velocity="0.717"/>
      <note number="6" values="48" ticks="431" durationTicks="119" ppq="96" velocity="0.787"/>
    </notes>
  </exercise>
  <exercise number="7">
    <scale>minor</scale>
    <cadenceVariant>harmonic</cadenceVariant>
    <bpm>140</bpm>
    <lowestNote>6</lowestNote>
    <tonalities>8</tonalities>
    <video name="7t.mp4" size="1586402" type="video/mp4" volume="0.5">8c4e2b11ff9b081ee974538cd4f9a141f489d64f294fa4d27042b032f9799a6f</video>
    <notes>
      <note number="1" values="48" ticks="82" durationTicks="28" ppq="96" velocity="0.709"/>
      <note number="2" values="48" ticks="130" durationTicks="68" ppq="96" velocity="0.772"/>
      <note number="3" values="48" ticks="226" durationTicks="96" ppq="96" velocity="0.724"/>
      <note number="4" values="58" ticks="322" durationTicks="46" ppq="96" velocity="0.772"/>
      <note number="5" values="48" ticks="368" durationTicks="96" ppq="96" velocity="0.717"/>
      <note number="6" values="38" ticks="462" durationTicks="66" ppq="96" velocity="0.787"/>
      <note number="7" values="38" ticks="556" durationTicks="96" ppq="96" velocity="0.8"/>
    </notes>
  </exercise>
  <exercise number="8">
    <scale>minor</scale>
    <cadenceVariant>harmonic</cadenceVariant>
    <bpm>140</bpm>
    <lowestNote>6</lowestNote>
    <tonalities>8</tonalities>
    <video name="8t.mp4" size="1788208" type="video/mp4" volume="0.5">3ee586b0e6742e845ec9eb53cc1ba625bc38ef12be78844e1fb75030f8a0a5f5</video>
    <notes>
      <note number="1" values="48" ticks="48" durationTicks="28" ppq="96" velocity="0.709"/>
      <note number="2" values="38" ticks="96" durationTicks="68" ppq="96" velocity="0.772"/>
      <note number="3" values="28" ticks="193" durationTicks="74" ppq="96" velocity="0.724"/>
      <note number="4" values="28" ticks="289" durationTicks="93" ppq="96" velocity="0.772"/>
      <note number="5" values="38" ticks="422" durationTicks="47" ppq="96" velocity="0.717"/>
      <note number="6" values="28" ticks="479" durationTicks="82" ppq="96" velocity="0.787"/>
      <note number="7" values="18" ticks="577" durationTicks="185" ppq="96" velocity="0.732"/>
    </notes>
  </exercise>
</level>
